<svg xmlns="http://www.w3.org/2000/svg" viewBox="0 0 290 200">
  <defs>
    <style>
      .cls-1 {
        fill: #fff;
      }
    </style>
  </defs>
  <title>Fichier 2</title>
  <g id="Calque_2" data-name="Calque 2">
    <g id="Calque_1-2" data-name="Calque 1">
      <g>
        <path class="cls-1" d="M291,140v61H1V1H291V136c-9.76-3.39-12.59-1.21-14.53,11.29,3,1.22,4.53.09,5.28-3a63.78,63.78,0,0,1,2.36-6.58l1.76.58c-.61,2.95-1.21,5.9-1.82,8.87,3.12,1.11,4.71.42,5.22-2.7A22.54,22.54,0,0,1,291,140ZM146.87,30.68c-10.15-6.14-17.61-5.16-24,3.67-14.39,19.8-28.48,39.81-42.53,59.84a10.16,10.16,0,0,1-9,4.88,130,130,0,0,0-17.38,1.6c-11.46,1.75-22.87,3.84-34.29,5.81A25.18,25.18,0,0,1,22,80.12c9-11.71,24.79-13,37.75-3,4.14,3.18,6.73,2.57,10.74-2.4,2.84-3.5.7-5.74-1.85-8C55.12,55,35.51,53.68,19.89,63.57,6,72.38-.17,90,4.73,107.12c7.65,26.7,40.91,35.82,63.36,17.42,2.89-2.36,4.82-4.67,1.83-8.29-4.18-5.07-6-5.39-10.28-2.46-3.13,2.13-6.4,4.42-10,5.49-7.64,2.3-15.13,1.77-22.82-3.85,7.74-2.05,14.26-4,20.9-5.48s13.32-2.43,18.07-3.27l9.35,11.2c8.91-12.88,17.93-16.48,29.54-12.42-.53,8.81-1.52,17.58-1.49,26.35.06,23.86,16.5,41.37,39.52,42.42,4.65.22,9.49.28,13.26-3.82-24.33-8.59-33.62-20.25-32-40.39h5.33c21,0,42,.25,63-.09,10.42-.17,17.76-6,20.74-15.09s.41-17.44-7.83-24.31c-2.18-1.81-2.73-3.27-1-5.84,9.32-13.91,2.09-29.06-14.67-30.69-5.62-.55-11.31-.44-16.95-.85-4.77-.35-6.48,1.62-6.43,6.39.18,17,.07,34,.07,51v5.72H139.63c4-4.34,7-7.57,9.92-10.84,6.64-7.33,12.66-15,14.91-25a22.48,22.48,0,0,0-19.58-27.67L138.53,52C141.39,44.7,144.09,37.77,146.87,30.68Zm76.44,57.07,1.91.2c.64,1.65,1.36,3.27,1.91,5,3.59,10.89,7.33,21.74,10.6,32.73,1.15,3.88,3.17,4.9,6.83,4.63,3.84-.28,7.72.9,9.34-4.74,3.22-11.18,7.15-22.15,11-33.15.43-1.25,2-2.1,3.05-3.14.75,1.15,1.93,2.23,2.16,3.48,1.74,9.49,3.17,19,4.94,28.51,1.89,10.13-.55,8.81,10.65,9,3.6.06,4.79-1.35,4.21-4.81Q284.23,91.73,278.72,58c-.62-3.84-2.29-5.62-6.26-5a14,14,0,0,1-4,0c-4-.58-5.46,1.42-6.58,5-4.12,13.16-8.51,26.23-12.95,39.29-.53,1.55-1.94,2.8-2.94,4.2-1.15-1.43-2.82-2.67-3.37-4.3q-6.82-20.06-13.21-40.26c-.91-2.91-2.29-4.18-5.3-3.91a38.68,38.68,0,0,1-5.49,0c-3.53-.18-5.08,1.65-5.61,4.95-1.5,9.19-3.15,18.36-4.63,27.55a5.38,5.38,0,0,0,.47,3.67c3.11,4.14,6.47,8.1,9.76,12.15C220.08,97.09,221.7,92.42,223.31,87.75Zm-39,59.33c3.42,1.73,4.6,0,5.41-2.85.63-2.22,1.59-4.35,2.4-6.52l1.83.63c-.64,2.94-1.29,5.89-2,9.16,8,1.24,3.68-8.44,9.55-9.62-.61,3.42-1.14,6.36-1.67,9.3l1,1c1.24-.82,3.29-1.43,3.56-2.5a62.12,62.12,0,0,0,1.27-9.94c0-.19-1.13-.68-1.73-.68-3.37,0-6.78.45-10.1.07-6.32-.73-8.16,2.89-8.77,8.12C185,144.56,184.58,145.82,184.32,147.08Zm-21.45-11.51c-2.52,0-4.12.13-5.68,0-5.62-.54-8.08,1.41-9,7.05-.88,5.49,3.29,4.63,6.79,4.66l-.4,1.42h-8.43c3.2,4.46,6.75,4,9.54,2.58C162.12,148.08,160.24,141.11,162.87,135.57Zm-14.47-.11c-2.93,0-4.69.16-6.4,0-5.34-.6-7.91,1.58-8.68,7.46-.71,5.49,3.48,4.18,6.72,4.19l-.26,1.42h-7.6c2.09,4.12,5.28,4.09,8.09,3C147.46,148.59,144.83,141,148.4,135.46Zm32.09-.52c-6.86.06-10.45,3.94-10.38,9.13,0,3.49,2.42,4,5.09,4,5.09.1,9-3.55,8.57-8.81C183.61,137.42,181.16,135.77,180.49,134.94Zm85.38,13.13c6.78-.09,10.39-4.1,10.2-9.17-.13-3.5-2.53-3.84-5.17-3.88-5-.06-8.95,3.65-8.45,8.9C262.62,145.73,265.2,147.31,265.87,148.07Zm-23.37-.6c.52-2.06,1.05-4,1.49-5.88.55-2.4,2.61-5.21-1.56-6.46a6.8,6.8,0,0,0-8.8,4.11l6.19-1.12c-1.86,1.79-4.28,2-6,3.19-1.35.95-1.82,3.14-2.69,4.79,1.52.6,3,1.56,4.56,1.73A42.68,42.68,0,0,0,242.5,147.47Zm-23-4.28-7.3,2.19c-.48-4.65,3-2.6,4.81-3.38,1.46-.64,2.59-2.05,3.87-3.12-1.2-1.28-2.45-3.67-3.59-3.62-2.6.12-5.65.82-7.59,2.42-3.05,2.51-3.06,8.17-.73,9.71C212,149.34,216.77,147.82,219.54,143.19Zm34.5-6.56,1.72-.32a6.15,6.15,0,0,1-1.2-1.37c-1.95-4.35-2.76-4.61-5.37-.44-1.4,2.23-1.59,5.26-2.09,8-.29,1.52-.65,4.15,0,4.51a10,10,0,0,0,4.2.77C252.39,143.33,253.21,140,254,136.63Zm-83-4.86-1-1.21c-1.36.9-3.5,1.52-3.92,2.74-1.56,4.48-2.55,9.17-3.75,13.78l1,1.14c1.36-.88,3.52-1.47,3.93-2.67C168.9,141.06,169.87,136.38,171.07,131.77Zm62,2.85c-3.72.89-7.9.66-9.51,2.58-2,2.42-2,6.6-2.92,10.52,1.93-.13,4-.07,4-.3C225.41,142.15,229.81,139.34,233.1,134.62Zm21.84,12.57c4.63.35,5.84-1.78,6.79-11.44C257.15,135.1,255.88,137.17,254.94,147.19Z" transform="translate(-1 -1)"/>
        <path d="M291,140a22.54,22.54,0,0,0-1.73,4.5c-.51,3.12-2.1,3.81-5.22,2.7.61-3,1.21-5.92,1.82-8.87l-1.76-.58a63.78,63.78,0,0,0-2.36,6.58c-.75,3-2.26,4.18-5.28,3,1.94-12.5,4.77-14.68,14.53-11.29Z" transform="translate(-1 -1)"/>
        <path d="M146.87,30.68c-2.78,7.09-5.48,14-8.34,21.32l6.35.73A22.48,22.48,0,0,1,164.46,80.4c-2.25,10-8.27,17.67-14.91,25-3,3.27-5.94,6.5-9.92,10.84h26.59v-5.72c0-17,.11-34-.07-51-.05-4.77,1.66-6.74,6.43-6.39,5.64.41,11.33.3,16.95.85,16.76,1.63,24,16.78,14.67,30.69-1.73,2.57-1.18,4,1,5.84C213.44,97.4,216,105.7,213,114.84s-10.32,14.92-20.74,15.09c-21,.34-42,.09-63,.09H124c-1.61,20.14,7.68,31.8,32,40.39-3.77,4.1-8.61,4-13.26,3.82-23-1-39.46-18.56-39.52-42.42,0-8.77,1-17.54,1.49-26.35-11.61-4.06-20.63-.46-29.54,12.42l-9.35-11.2c-4.75.84-11.46,1.81-18.07,3.27s-13.16,3.43-20.9,5.48c7.69,5.62,15.18,6.15,22.82,3.85,3.56-1.07,6.83-3.36,10-5.49,4.31-2.93,6.1-2.61,10.28,2.46,3,3.62,1.06,5.93-1.83,8.29-22.45,18.4-55.71,9.28-63.36-17.42C-.17,90,6,72.38,19.89,63.57c15.62-9.89,35.23-8.6,48.76,3.19,2.55,2.23,4.69,4.47,1.85,8-4,5-6.6,5.58-10.74,2.4-13-10-28.74-8.72-37.75,3a25.18,25.18,0,0,0-2.42,26.35c11.43-2,22.84-4,34.3-5.8a130,130,0,0,1,17.38-1.6,10.16,10.16,0,0,0,9-4.88c14.05-20,28.14-40,42.53-59.84C129.26,25.52,136.72,24.54,146.87,30.68Zm-6.78,34.15c-2.69,2.09-6.91,3.67-7.79,6.35-2.74,8.28-4.29,17-6.07,25.53-.22,1.06.61,3.15,1.46,3.49,3.46,1.41,7,2.77,10-1.46,2.35-3.39,5.77-6.07,7.9-9.56A37,37,0,0,0,150.7,77C151.86,70.78,147.17,66,140.09,64.83Zm45.82,51.44c2.22-.14,3.39-.18,4.55-.3,5.84-.63,9-3.21,9.45-7.82.52-4.89-2.61-9.11-7.95-10.57a32.31,32.31,0,0,0-4.91-.85c-5.19-.56-6.08.27-6.15,5.62,0,2.67.17,5.35-.06,8C180.43,115,182.36,116.92,185.91,116.27ZM93.56,96.79l.63,1.56c3.28,0,6.57.2,9.81-.11a4.13,4.13,0,0,0,3-2.33c2.14-9,4-18.08,6-27.14l-.61-.28Zm90.18-29.6c-.61.88-2.81,2.65-2.61,4.07.6,4.14-3.23,9.53,3,12.29a1.57,1.57,0,0,0,.49.07c5.27.46,9.94-3.31,10.08-8.14S190.78,67.21,183.74,67.19Z" transform="translate(-1 -1)"/>
        <path d="M223.31,87.75c-1.61,4.67-3.23,9.34-4.69,13.56-3.29-4-6.65-8-9.76-12.15a5.38,5.38,0,0,1-.47-3.67c1.48-9.19,3.13-18.36,4.63-27.55.53-3.3,2.08-5.13,5.61-4.95a38.68,38.68,0,0,0,5.49,0c3-.27,4.39,1,5.3,3.91q6.36,20.2,13.21,40.26c.55,1.63,2.22,2.87,3.37,4.3,1-1.4,2.41-2.65,2.94-4.2,4.44-13.06,8.83-26.13,12.95-39.29,1.12-3.56,2.62-5.56,6.58-5a14,14,0,0,0,4,0c4-.6,5.64,1.18,6.26,5q5.44,33.73,11.15,67.43c.58,3.46-.61,4.87-4.21,4.81-11.2-.21-8.76,1.11-10.65-9-1.77-9.48-3.2-19-4.94-28.51-.23-1.25-1.41-2.33-2.16-3.48-1,1-2.62,1.89-3.05,3.14-3.81,11-7.74,22-11,33.15-1.62,5.64-5.5,4.46-9.34,4.74-3.66.27-5.68-.75-6.83-4.63-3.27-11-7-21.84-10.6-32.73-.55-1.68-1.27-3.3-1.91-5Z" transform="translate(-1 -1)"/>
        <path d="M184.32,147.08c.26-1.26.63-2.52.78-3.81.61-5.23,2.45-8.85,8.77-8.12,3.32.38,6.73-.08,10.1-.07.6,0,1.75.49,1.73.68a62.12,62.12,0,0,1-1.27,9.94c-.27,1.07-2.32,1.68-3.56,2.5l-1-1c.53-2.94,1.06-5.88,1.67-9.3-5.87,1.18-1.54,10.86-9.55,9.62.71-3.27,1.36-6.22,2-9.16l-1.83-.63c-.81,2.17-1.77,4.3-2.4,6.52C188.92,147.06,187.74,148.81,184.32,147.08Z" transform="translate(-1 -1)"/>
        <path d="M162.87,135.57c-2.63,5.54-.75,12.51-7.17,15.68-2.79,1.38-6.34,1.88-9.54-2.58h8.43l.4-1.42c-3.5,0-7.67.83-6.79-4.66.91-5.64,3.37-7.59,9-7.05C158.75,135.7,160.35,135.57,162.87,135.57Z" transform="translate(-1 -1)"/>
        <path d="M148.4,135.46c-3.57,5.58-.94,13.13-8.13,16-2.81,1.12-6,1.15-8.09-3h7.6l.26-1.42c-3.24,0-7.43,1.3-6.72-4.19.77-5.88,3.34-8.06,8.68-7.46C143.71,135.62,145.47,135.46,148.4,135.46Z" transform="translate(-1 -1)"/>
        <path d="M180.49,134.94c.67.83,3.12,2.48,3.28,4.32.46,5.26-3.48,8.91-8.57,8.81-2.67,0-5-.51-5.09-4C170,138.88,173.63,135,180.49,134.94Z" transform="translate(-1 -1)"/>
        <path d="M265.87,148.07c-.67-.76-3.25-2.34-3.42-4.15-.5-5.25,3.43-9,8.45-8.9,2.64,0,5,.38,5.17,3.88C276.26,144,272.65,148,265.87,148.07Z" transform="translate(-1 -1)"/>
        <path d="M242.5,147.47a42.68,42.68,0,0,1-6.8.36c-1.56-.17-3-1.13-4.56-1.73.87-1.65,1.34-3.84,2.69-4.79,1.71-1.21,4.13-1.4,6-3.19l-6.19,1.12a6.8,6.8,0,0,1,8.8-4.11c4.17,1.25,2.11,4.06,1.56,6.46C243.55,143.51,243,145.41,242.5,147.47Z" transform="translate(-1 -1)"/>
        <path d="M219.54,143.19c-2.77,4.63-7.58,6.15-10.53,4.2-2.33-1.54-2.32-7.2.73-9.71,1.94-1.6,5-2.3,7.59-2.42,1.14,0,2.39,2.34,3.59,3.62-1.28,1.07-2.41,2.48-3.87,3.12-1.78.78-5.29-1.27-4.81,3.38Z" transform="translate(-1 -1)"/>
        <path d="M254,136.63c-.83,3.35-1.65,6.7-2.74,11.13a10,10,0,0,1-4.2-.77c-.65-.36-.29-3,0-4.51.5-2.72.69-5.75,2.09-8,2.61-4.17,3.42-3.91,5.37.44a6.15,6.15,0,0,0,1.2,1.37Z" transform="translate(-1 -1)"/>
        <path d="M171.07,131.77c-1.2,4.61-2.17,9.29-3.72,13.78-.41,1.2-2.57,1.79-3.93,2.67l-1-1.14c1.2-4.61,2.19-9.3,3.75-13.78.42-1.22,2.56-1.84,3.92-2.74Z" transform="translate(-1 -1)"/>
        <path d="M233.1,134.62c-3.29,4.72-7.69,7.53-8.45,12.8,0,.23-2.05.17-4,.3,1-3.92.89-8.1,2.92-10.52C225.2,135.28,229.38,135.51,233.1,134.62Z" transform="translate(-1 -1)"/>
        <path d="M254.94,147.19c.94-10,2.21-12.09,6.79-11.44C260.78,145.41,259.57,147.54,254.94,147.19Z" transform="translate(-1 -1)"/>
        <path class="cls-1" d="M140.09,64.83c7.08,1.2,11.77,6,10.61,12.2a37,37,0,0,1-5.15,12.15c-2.13,3.49-5.55,6.17-7.9,9.56-3,4.23-6.5,2.87-10,1.46-.85-.34-1.68-2.43-1.46-3.49,1.78-8.57,3.33-17.25,6.07-25.53C133.18,68.5,137.4,66.92,140.09,64.83Z" transform="translate(-1 -1)"/>
        <path class="cls-1" d="M185.91,116.27c-3.55.65-5.48-1.27-5.07-5.92.23-2.65,0-5.33.06-8,.07-5.35,1-6.18,6.15-5.62a32.31,32.31,0,0,1,4.91.85c5.34,1.46,8.47,5.68,7.95,10.57-.49,4.61-3.61,7.19-9.45,7.82C189.3,116.09,188.13,116.13,185.91,116.27Z" transform="translate(-1 -1)"/>
        <path class="cls-1" d="M93.56,96.79l18.78-28.3.61.28c-2,9.06-3.84,18.13-6,27.14a4.13,4.13,0,0,1-3,2.33c-3.24.31-6.53.11-9.81.11Z" transform="translate(-1 -1)"/>
        <path class="cls-1" d="M183.74,67.19c7,0,11,3.58,10.91,8.29s-4.81,8.6-10.08,8.14a1.57,1.57,0,0,1-.49-.07c-6.18-2.76-2.35-8.15-3-12.29C180.93,69.84,183.13,68.07,183.74,67.19Z" transform="translate(-1 -1)"/>
      </g>
    </g>
  </g>
</svg>
