<svg xmlns="http://www.w3.org/2000/svg" viewBox="0 300 1200 1200">
  <title>Fichier 3</title>
  <g id="Calque_2" data-name="Calque 2">
    <g id="Calque_1-2" data-name="Calque 1">
      <g>
        <path fill="#fff" d="M562,1q10.8,2.49,21.59,5a86.72,86.72,0,0,1,16.07,5.74c4.61,2.09,5,4.63,3.61,8.92-3.8,11.63-9.06,22.68-13.67,34-6.46,15.81-12.44,31.8-18.47,47.77-1.25,3.31-3.11,4.31-6.44,4.71-9.37,1.11-18.63,2.89-27.17,7.16-.77.38-2.58.34-2,2.15-1.94-1.07-3.64,0-5.08.91-6.44,4.26-12.78,8.67-19.15,13,9.06-3,15.53-10.32,24.15-14,11-5.23,22.88-7.73,34.84-9.17,18.12-2.19,36-.24,52.86,6.92,29.14,12.36,46.23,35.13,54.44,65,4.71,17.16,2.54,34.16-2.09,51-7.17,26.11-21,48.48-37.49,69.62-10.33,13.23-21.49,25.75-32.88,37.94-7,7.46-13.48,15.52-21.39,22.13-2.79,2.33-4.7,5.17-3.22,9.1,1.56,4.14,5.07,4.06,8.63,4.05,30,0,60-.12,90,.11,4.7,0,6-.94,6-5.89-.18-80.17,0-160.33-.21-240.5,0-11.84,6.54-17.15,16.59-16.85,15.82.46,31.69-.49,47.49.27,20.77,1,41.76,1.46,61.37,9.86,24.93,10.67,41.53,28.48,47.71,55.43a76.85,76.85,0,0,1-3.25,44.92c-3,8-8.16,14.91-13.94,21.18-8,8.73-4.94,16.2,2.61,21,12.79,8.18,23,18.58,30,31.77a73.33,73.33,0,0,1,8.32,27,118.15,118.15,0,0,1,.35,26.33,89.26,89.26,0,0,1-11.38,34.64c-8,13.88-18.77,25.34-32.78,33.46A90.23,90.23,0,0,1,803.26,427c-35.46,4.26-71.09,1.57-106.63,1.74-9.37,0-18.87-.61-28.3-.63q-90-.18-180,0c-1.73,0-3.55-.52-6.13,1,7.9,0,14.86.12,21.82-.06,2.86-.07,4,.47,4.07,3.76a206.07,206.07,0,0,0,14.06,72.49c7.67,19.62,18.69,37.31,34.3,51.6,15.33,14,33.6,23.11,53.4,29.18a162.73,162.73,0,0,0,29.3,6.06c1.6.18,3.32.48,3.8,2.42s-.79,3.16-2.12,4.18A56.94,56.94,0,0,1,613.17,610c-5.53.73-11,1.53-16.6,2-7.46.57-14.93-.52-22.28-1.25a164.89,164.89,0,0,1-33.84-7.37c-17.44-5.6-33.6-13.46-48.16-24.56-24.67-18.79-41.81-43.2-53.76-71.61a189.38,189.38,0,0,1-13.64-55.83c-1.74-18.12-1.14-36.24-.62-54.31.41-14,2.37-28.11,4.5-42.09,1.31-8.55,2.47-17.11,4.09-25.61.7-3.69-3.31-7.14-8.14-7.33-12.63-.49-25.22.81-37.83.94-9.45.09-18.89.31-28.32,1.07-3.7.3-6,3.18-8.87,4.92-14.8,9-25.05,22.07-33.19,37-2.17,4-4.48,7.92-6.86,12.11a325.33,325.33,0,0,1-24.16-26,106,106,0,0,0-8.44-8.52c-2.44-2.31-3.07-3.87.54-6,3.33-1.94,6.78-3.95,10.06-7.7-62.21,5-121.57,19.86-180.38,38.83A109.88,109.88,0,0,0,150.37,387a103.79,103.79,0,0,0,19.1,1.72c14.55,0,29.12-1.83,42.64-7.8a133.45,133.45,0,0,0,37.8-25.32c5.1-4.8,17-4.63,21.69.45,5.27,5.73,10.81,11.22,16.26,16.76,7.07,7.18,6.61,19.33-2.55,26.78-10.19,8.28-20.3,16.58-31.63,23.24a145.8,145.8,0,0,1-56.28,19.33A222.17,222.17,0,0,1,161.8,444c-34-1.25-65.17-10.72-92.44-31.94-18.79-14.62-33.5-32.34-43.64-53.79A153.69,153.69,0,0,1,11.8,309.06C10.62,298.5,9.56,288,10.06,277.44c1.59-33.41,10.86-64.13,31.79-90.88,20.68-26.43,47.66-43.48,79.09-53.92,12.11-4,24.71-5.68,37.51-6.88,23.91-2.25,46.77,1.73,69.07,9.39a158.91,158.91,0,0,1,51.67,29.41c3.29,2.79,6.22,6,9.58,8.6,7.4,5.77,6.91,19.27.08,25.51-5.74,5.26-11.24,10.79-17,16-5.31,4.76-15.58,4.49-20.91-.23-16.9-14.95-35.71-26.55-58.13-30.88-11.45-2.22-23-3.34-35-1.77-12.52,1.65-24.56,4.3-35.63,10.27-24.75,13.37-41.81,33.29-50.33,60.32a105.77,105.77,0,0,0-4.72,37.88,121.2,121.2,0,0,0,9.12,40.29c.57,1.38.86,2.51,3.45,1.8,15.25-4.18,30.61-8.05,46.21-10.73,14.31-2.45,28.49-5.65,42.89-7.68,11-1.54,21.84-4,32.81-5.66,8.57-1.34,17.23-2.15,25.84-3.26,9.59-1.23,19.16-2.58,28.74-3.8,4.74-.6,9.57-.71,14.3-.94,8.92-.44,17.81-1.74,26.8-1.35,4.91.2,9.8-1.24,14.8-1,2.23.12,4.09-1.25,5.41-3,14.8-19.8,29.88-39.39,44.25-59.5,14.81-20.73,28.94-42,43.33-63,20-29.27,39.74-58.74,60.13-87.75,14.21-20.22,28.7-40.27,44.7-59.17,6.44-7.6,13.24-14.65,21.4-20.44C534.05,3.11,537.4,3,540,1ZM482.36,386.42c-12.78,6.4-17.46,18.15-14.94,37.52,1.68-5,.59-10.18.57-15.28,0-4.76,1.18-8.79,4.92-12.23,3.36-3.09,7.17-5.9,9.31-10.16a41.59,41.59,0,0,0,4.17-4.23c2.09-2.8,6.19-4,6.48-8.24,1.57,0,2.31-1.31,3-2.28,5.52-7.59,12.73-13.62,19-20.55,7.22-8.05,15.67-15,23.58-22.39l-1.07-1.23a14.58,14.58,0,0,0-3.17,0,34.52,34.52,0,0,1-15.72.12c-3.87-.94-4.78,1.12-5.18,3.25a118.81,118.81,0,0,0-2.16,17.51c-.17,4.48-2,7.45-5.13,10.44-4.83,4.59-10.34,8.74-13,15.26-2.72,2.56-5.53,5.05-8.13,7.73C483.65,383,481.28,383.83,482.36,386.42Zm1-211c-1.56-.54-1.75,1.09-1.86,1.65-1.79,9.09-5.42,17.74-6.5,27-.64,5.58,2.49,10.74,6.63,10.9,4.77.19,9.53.58,14.28.84,10.61.6,21.28.13,31.92.23,2.71,0,4.44-1,5.24-3.52a86,86,0,0,0,3.47-19c3.63-2.44,2.81-8.08,7.19-10.18a4.78,4.78,0,0,1,.18,1.62c-11.23,35.87-19.27,72.48-25.8,109.45-1.26,7.08,0,9.06,7,10.73,6.16,1.48,12.88,2.14,18.21,5.17,6.7,3.8,9.84.91,14.28-3.36,14.34-13.8,26.58-29.4,39.46-44.47a112.59,112.59,0,0,0,19.63-33.88c4.66-12.34,6.46-25.32,2.68-38C613.75,171.74,596,161,576,162.38c-8.91.6-17.13,3.35-23.62,9.12-6.78,6-13.8,12.37-15.75,22.08-1.66,3.42-2.2,7-2.81,10.79-1.62,10-1.93,10.84-10.84,10.73-12.92-.16-25.83-.25-38.73-1.06-4.92-.3-9.31-5.51-8.12-10.42,2.28-9.45,4.74-18.87,7.1-28.33,3.41-2.56,2.3-6.94,4.12-10.19,4.78-8.54,8.87-17.46,14.39-25.64a8.21,8.21,0,0,0-3.3,2.7c-4.43,7.94-8.92,15.86-12.94,24C484.14,168.93,484.05,172.33,483.38,175.44ZM745,329.52c0,9.32-.09,18.64,0,28,.1,7.25,5.28,13.36,11.64,13.47,14,.25,27.79-.45,41.58-3.73,15.27-3.62,25.07-16.65,25.78-32,1-20.76-12.45-34.78-25-39.43A112.19,112.19,0,0,0,759,289a13.88,13.88,0,0,0-14,14.11C745.08,311.88,745,320.7,745,329.52ZM424.71,297c2.83,0,5.66-.11,8.49,0,3.54.17,5.18-1.06,6-4.86,1.66-7.8,3.1-15.65,4.6-23.46,4.66-24.29,10.12-48.39,16.08-72.38q2.7-10.89,5.08-21.85c.33-1.55.47-3.66-1.56-4.22s-2.18,1.57-2.9,2.76c-14.18,23.31-28.56,46.5-44,69-10.19,14.8-20.75,29.33-31,44.07-3.27,4.68-.9,9.87,4.49,9.88C401.53,296,413.14,295.9,424.71,297ZM745,200.76c0,8-.06,14.5,0,21s4,11.88,10.35,13.1c9.16,1.76,18.12,0,26.7-3.19,21-7.85,24.82-34.15,14.75-49-9.17-13.5-27.94-16.35-42.15-13.86-5,.88-7.68,4.13-8.82,9.2C744,186.1,745.72,194.21,745,200.76Z" transform="translate(-9.94 -1)"/>
        <path fill="#fff" d="M1201,463c-3.92,10.51-6.25,21.48-8.89,32.33-1,4.25-2.57,6.36-7.17,5.73a60.65,60.65,0,0,0-8-.06c-6.52,0-6.55,0-4.83-6.4q3.63-13.52,7.34-27c.63-2.29,1.49-4.82-.89-6.32s-5.07-.72-7.32,1a11.45,11.45,0,0,0-4.23,6.51c-2.35,9.34-4.78,18.67-7,28-.76,3.13-2.08,4.63-5.65,4.28-4.12-.42-8.31-.09-12.47-.11-1.74,0-3.2.28-2.38-2.64q6.46-23.09,12.4-46.31c.56-2.21,1.67-2.07,3.11-2.08,4.33,0,8.66.17,13,0,2.64-.11,3.75.78,2.71,4,5.44-3.5,10.49-5.9,16.15-5.91,5.43,0,10.79.73,14.16,5.92Z" transform="translate(-9.94 -1)"/>
        <path fill="#fff" d="M898.49,318.19c-4.08-19.42-12.77-36-26.63-49.72a93.11,93.11,0,0,0-12.63-10.26c-2.11-1.46-2.19-2.61-1.81-4.85,3.62-21.11,7-42.27,10.62-63.38,2.8-16.24,5.91-32.43,8.79-48.67C878,134.72,879,128.1,880,121.48c.89-5.72,8.7-12.47,14.54-12.48q19,0,38,0c5.83,0,9.08,2.27,10.93,7.94C951,140,958.44,163.1,966,186.17q12.48,38.21,25,76.39c4.35,13.26,8.63,26.55,13,39.82,1.65,5,5.22,7.57,10.13,7.64,5.28.07,8.19-2.93,9.71-7.51q14.65-44.4,29.22-88.83,11.55-35.09,23.11-70.14,4.35-13.17,8.76-26.31c2-6.08,4.9-8.21,11.23-8.22q20.23,0,40.49,0c6,0,10.37,3.59,11.31,9.43,3.38,21,6.61,42.1,10.11,63.12,3.16,19,6.83,37.92,9.84,56.95,3.78,23.87,7.71,47.71,11.95,71.5,3.07,17.27,5.34,34.68,8.18,52,2.78,16.91,5.64,33.8,8.84,50.62C1199,423.75,1195,429,1183.57,429h-33c-6.22,0-10.42-3.22-11.41-9.29-2.83-17.25-5.34-34.55-8.21-51.79-2.41-14.51-5.25-28.95-7.69-43.46-1.92-11.44-3.35-23-5.33-34.41q-2.07-12-4.18-24.05a9.22,9.22,0,0,0-8.59-7.65c-4.15-.32-7.81.52-9.78,5.25-4.25,10.25-7.26,20.9-10.79,31.38-6,17.76-11.78,35.59-17.69,53.39q-11.87,35.78-23.81,71.53c-2.29,6.87-5.35,9.1-12.24,9.1q-18,0-36,0c-5.19,0-8.58-2.05-10.21-7.34q-7.87-25.43-16.2-50.72c-6-18.27-12.53-36.38-18.26-54.74-5.88-18.82-11.87-37.6-18.13-56.3-1.24-3.71-3.33-7-7.39-6.69-3.66.29-5.61,2.94-6.95,7-6.2,19-12.07,38-17.93,57.05C899.72,317.54,899.3,317.66,898.49,318.19Z" transform="translate(-9.94 -1)"/>
        <path fill="#fff" d="M790.09,501c3.12-11.93,6-23.36,9.21-34.68.59-2.07.51-3.71-.79-4.9s-3.2-1.62-5.44-.72c-4.2,1.67-6,4.87-7,8.83q-3.59,13.75-7.07,27.53c-.73,2.84-2,4.3-5.38,4-5-.39-10-.1-15.27-.1,4.31-16.53,8.53-32.78,12.78-49,.48-1.81,1.94-2,3.54-2,3.66,0,7.33,0,11,0,2.53,0,6-1.1,4.34,4.08,14.9-8,26-7.38,30.47,1.68,6.26-5.74,13.38-8.25,22-6.91,7.77,1.22,11.29,5.29,9.39,12.83-3.08,12.21-6.57,24.31-9.72,36.51-.52,2-1.38,2.82-3.35,2.8-4.66,0-9.33-.06-14,0-2.6,0-2.92-.71-2.2-3.27,2.78-9.74,5.16-19.58,7.77-29.36.79-2.94,2.11-6.12-1.74-7.61-3.18-1.23-5.93.48-8.09,2.91-1.92,2.15-2.65,4.9-3.37,7.56-2.44,9-4.86,18-6.94,27.09-.48,2.09-1,2.73-3.06,2.69C801.62,500.93,796.13,501,790.09,501Z" transform="translate(-9.94 -1)"/>
        <path fill="#fff" d="M650.57,455.39c.47-4.73,3-6,7.1-5.43a43.69,43.69,0,0,0,5.49,0c8.45.1,7.64-1,5.69,7-3.36,13.81-7.22,27.51-10.94,41.23-2.72,10.06-8.85,16.62-19.26,19.12-9,2.17-17.9,2.48-26.76-.35-2.66-.85-5.17-2-6.43-4.94-2.55-5.94-1.28-8,5.16-8,3,0,6,0,9,0,1.26,0,2.37-.06,3.44,1.3,3.48,4.41,10,3.86,13.08-.92a17.66,17.66,0,0,0,1.82-3.47c.77-2.11,1.36-4.29,2.25-7.17-7.25,5.53-14.48,7.72-22.81,5.35-4.42-1.26-7-4.35-7.24-8.41-.69-14.17,2.51-27.32,13.21-37.42,6-5.7,13.77-5.95,21.38-3.83A8.45,8.45,0,0,1,650.57,455.39ZM630,482.07c-.23,2.5-.62,5.1,2.32,6.42,2.57,1.14,4.85.13,7-1.29a6.19,6.19,0,0,0,2.06-2.14c3.12-6.19,5.38-12.69,5.63-19.65.14-4-2.57-5.35-6.52-4.61s-5.69,3.64-6.83,6.54C631.72,472,629.78,476.83,630,482.07Z" transform="translate(-9.94 -1)"/>
        <path fill="#fff" d="M589.27,455.27c.28-5.06,3.12-5.58,6.93-5.33,4.11.27,8.25.06,12.61.06-4.69,17.57-9.09,34.81-14,51.91a19.94,19.94,0,0,1-12.17,13.31,47.87,47.87,0,0,1-32.7,1.69,10,10,0,0,1-6.22-5.32c-2.39-4.91-.83-7.56,4.55-7.58,3,0,6,0,9,0a5.73,5.73,0,0,1,4.29,1.88c4.52,4.61,10.2,3.63,13.41-2.09a15.36,15.36,0,0,0,2.12-4.92,43.21,43.21,0,0,1,2-6.05c-5.42,4.83-10.9,7.14-17.26,7.13-9.25,0-14.75-5.47-13.75-14.57,1.07-9.8,3.68-19.19,9.24-27.6,6.19-9.37,16.17-10,25.54-8.17C585.73,450.22,587.38,452.66,589.27,455.27ZM585,468.53c0-7.81-3.2-10.16-8.33-7.29a7.8,7.8,0,0,0-2.89,2.66A39.46,39.46,0,0,0,568,484.35c0,3.29,1.79,4.78,5,4.65a7.93,7.93,0,0,0,7.11-4.55A45.82,45.82,0,0,0,585,468.53Z" transform="translate(-9.94 -1)"/>
        <path fill="#fff" d="M983.16,497.15c-6,3.48-11.36,6.3-17.69,5.82-11.07-.82-14.91-4.68-11.69-17.12,2.6-10,11.07-13.11,20.16-14.83,3.85-.73,7.72-1.35,11.58-2.06.61-.12,1.17-.53,1.79-.71,2.93-.9,4.07-3.26,4.57-5.92.28-1.48-1.21-2.71-2.25-2.95-2.52-.59-5.94-1.55-7.39,1.06-4.57,8.19-12.13,4.95-18.7,5.55-2.39.21-2.69-.65-1.92-2.93,2.86-8.53,9.56-12.46,17.6-13.87,6.38-1.13,12.86-1.74,19.59-.39,10.86,2.18,13.69,6.48,10.56,17.54-2.79,9.89-6.4,19.67-7.41,29.93-.43,4.39-1.83,5.17-5.62,4.79a76.86,76.86,0,0,0-9.48,0C984.42,501.08,981.93,501.38,983.16,497.15ZM973,486.6c0,4.84,1.39,5.89,6,4.61,3.79-1,6.6-3.1,6.92-7.27.19-2.33,3.1-4.91,1.19-6.53-1.75-1.48-4.51.88-6.85,1.48C976.17,480,972.85,481.63,973,486.6Z" transform="translate(-9.94 -1)"/>
        <path fill="#fff" d="M758.2,463.76c-1.48,12.11-3.5,24-13.85,32.37-7.94,6.4-17.37,7.53-27.06,6.5a29.33,29.33,0,0,1-7.66-1.53c-5.7-2.23-8.72-5.72-8.59-11.73.25-12.27,2.77-23.78,11.93-32.87,7.83-7.77,17.75-8.63,27.91-8.11a28.31,28.31,0,0,1,5.83.7C752.71,450.69,759.09,453.73,758.2,463.76ZM725.43,492c3.57.45,5.19-1.68,6.65-4.26,4.1-7.28,5.37-15.4,6.82-23.42.66-3.62-1.46-5.51-5.3-5.31a7.28,7.28,0,0,0-6.44,3.85c-4.21,7.41-5.61,15.67-6.79,23.89C719.94,489.78,721.31,492.78,725.43,492Z" transform="translate(-9.94 -1)"/>
        <path fill="#fff" d="M1102.55,503.19c-3.29-.64-7.53-1.19-11.61-2.31-5.77-1.58-8.91-6-8.8-11.65a53.07,53.07,0,0,1,8.11-28c6.17-9.67,15.66-12.72,26.41-12.58,4.59.06,9.28-.18,13.81,1.29a13.84,13.84,0,0,1,9.12,15.5c-1.62,9.11-3.77,17.88-9.09,25.73-4.35,6.41-10.74,8.95-17.67,10.7C1109.82,502.67,1106.62,502.71,1102.55,503.19Zm-.72-18.19c.54,2.79-.92,6.14,2.43,6.8s6.73.9,8.94-3.24c4.1-7.67,6-15.8,6.85-24.34.43-4.39-1.49-5.6-5.47-5.26a7,7,0,0,0-5.9,3.73C1104.56,469.76,1102.7,477.46,1101.83,485Z" transform="translate(-9.94 -1)"/>
        <path fill="#fff" d="M892.32,478c-3.34,0-6.68-.19-10,.06-2.32.18-5.59-1.5-6.76,1.43-1.32,3.3-2.37,7-1.36,10.63.64,2.28,2.9,3.18,5.23,2.74a10.61,10.61,0,0,0,6.13-3.93c1.4-1.66.74-5.06,3.86-5.15,5.15-.16,10.33-.19,15.46.15,1.78.11.65,1.63.24,2.67-3,7.55-8.48,12.27-16.26,14.43a44.7,44.7,0,0,1-20,1.33c-12.73-2.21-15.06-8.53-13.7-19.12,1.05-8.22,3.38-16.24,8.27-23.35,4.32-6.28,10.51-9.38,17.46-10.72a45.14,45.14,0,0,1,16.62-.38c10.67,1.87,15.52,8,13.33,18.8-2.11,10.41-2.11,10.41-13,10.41Zm-13.74-9c3.45,0,6.61.09,9.77,0,1.4-.07,3.15.86,3.82-1.84s1.63-5.24-.35-7.46a5,5,0,0,0-5.42-1.42C881.37,459.86,879.35,463.67,878.58,469Z" transform="translate(-9.94 -1)"/>
        <path fill="#fff" d="M1044.92,491.19c-2.59,10.81-2.6,10.58-13.22,10.86-19,.51-17-5.41-13.66-18,1.71-6.46,3.07-13,5.19-19.36,1-3.09.65-4-2.44-3.69-3.5.39-4.42-.95-3.44-4.29,1.2-4.1,1.63-8.65,7.95-7.16,1.7.4,2.28-1.14,2.77-2.79,1.2-4,.65-9.39,4.11-11.63s8.43-.61,12.74-.69c6.46-.11,6.46,0,4.9,6.05a15.84,15.84,0,0,1-1,3.77c-2.34,4.2-1.37,5.93,3.52,5.25,3.37-.47,4.11,1,2.7,3.93a11.36,11.36,0,0,0-1,3.74c-.3,3.61-2.6,4.22-5.51,3.78-3.49-.53-4.9.92-5.61,4.33-1.37,6.54-3.32,12.94-4.93,19.43-1.33,5.33-.83,5.95,4.55,6.27C1043.18,491,1043.83,491.11,1044.92,491.19Z" transform="translate(-9.94 -1)"/>
        <path fill="#fff" d="M677.63,501c-10.2,0-10.11,0-7.39-9.94,5-18.09,9.9-36.18,14.54-54.35.74-2.92,1.76-3.85,4.56-3.75,4,.15,8,.22,12,0,3.62-.22,4.21,1.12,3.29,4.36-2.65,9.28-5.08,18.62-7.58,27.94-2.62,9.78-5.7,19.47-7.65,29.38-1,5.34-3.05,7.34-8.25,6.4A20.2,20.2,0,0,0,677.63,501Z" transform="translate(-9.94 -1)"/>
        <path fill="#fff" d="M940.39,455.2a31.68,31.68,0,0,1,15.7-7.12c2.93-.41,6.19-.49,4,4.25-.13.27,0,.66-.07,1-1.93,8.61-1.93,8.61-10.87,9.71-8,1-11.15,3.8-13.14,11.71-2,7.75-4.09,15.46-5.93,23.23-.6,2.51-1.88,3.12-4.21,3.07-5.32-.11-10.64,0-16.61,0,3.14-11.87,6.2-23.43,9.27-35,1.13-4.27,2.61-8.47,3.38-12.79.51-2.9,2-3.48,4.42-3.44,3.66,0,7.33.09,11,0C940.41,449.75,943.75,449.32,940.39,455.2Z" transform="translate(-9.94 -1)"/>
        <path fill="#fff" d="M1049,501c4.43-16.57,8.79-32.58,12.94-48.65a3.15,3.15,0,0,1,3.45-2.74c4.49-.13,9-.15,13.46-.18,2.56,0,3.56.92,2.81,3.71-4,14.8-7.82,29.64-11.66,44.47-.61,2.39-1.68,3.56-4.4,3.45C1060.18,500.85,1054.73,501,1049,501Z" transform="translate(-9.94 -1)"/>
        <path fill="#fff" d="M831.79,428.49C846.45,423.9,859,415.94,870.48,406l1,.77c-2.09,6.29-4.2,12.58-6.26,18.88-.39,1.19-1.21,1.39-2.28,1.4C852.54,427,842.22,428.09,831.79,428.49Z" transform="translate(-9.94 -1)"/>
        <path fill="#fff" d="M1076.37,433a9.13,9.13,0,0,1,3,.05c2.21.83,6.26-2.46,6.56,2.37.34,5.63-2.73,9-7.29,8.91-3.48-.06-7-.2-10.45-.11-2.6.07-3.82-.7-2.83-3.44.11-.31.41-.61.4-.9-.15-6.13,3.14-7.88,8.66-6.9A11,11,0,0,0,1076.37,433Z" transform="translate(-9.94 -1)"/>
        <path fill="#fff" d="M885.53,444.41c3.93-12.18,7.84-14.15,26.38-13.16-4.37,3.76-8.43,6.63-11.71,10.23C895.78,446.31,890.5,442.84,885.53,444.41Z" transform="translate(-9.94 -1)"/>
      </g>
    </g>
  </g>
</svg>
